<?xml version="1.0" encoding="UTF-8"?>
<svg width="451px" height="153px" viewBox="0 0 451 153" version="1.1" xmlns="http://www.w3.org/2000/svg" xmlns:xlink="http://www.w3.org/1999/xlink">
    <!-- Generator: Sketch 40.3 (33839) - http://www.bohemiancoding.com/sketch -->
    <title>Page 1</title>
    <desc>Created with Sketch.</desc>
    <defs>
        <polygon id="path-1" points="0 0.147183707 0 118.946591 138.248145 118.946591 138.248145 0.147183707 0 0.147183707"></polygon>
        <polygon id="path-3" points="0.477980793 121.107854 191.259727 121.107854 191.259727 0.548346229 0.477980793 0.548346229 0.477980793 121.107854"></polygon>
        <polygon id="path-5" points="10.5136745 0.558602731 0.294953765 0.558602731 0.294953765 13.4797677 10.5136745 13.4797677 10.5136745 0.558602731"></polygon>
        <polygon id="path-7" points="12.6169861 13.4797677 12.6169861 0.558602731 0.197385481 0.558602731 0.197385481 13.4797677 12.6169861 13.4797677"></polygon>
    </defs>
    <g id="Page-1" stroke="none" stroke-width="1" fill="none" fill-rule="evenodd">
        <g id="Artboard" transform="translate(-100.000000, -196.000000)">
            <g id="Page-1" transform="translate(100.000000, 196.000000)">
                <g id="Group-3" transform="translate(-0.000000, 0.600324)">
                    <mask id="mask-2" fill="white">
                        <use xlink:href="#path-1"></use>
                    </mask>
                    <g id="Clip-2"></g>
                    <path d="M79.1178443,118.043651 C79.1178443,118.043651 122.042699,124.980408 134.683904,92.8254032 C135.401827,90.999514 136.030946,89.4593002 136.594905,88.1520308 C137.676114,84.2151563 138.248145,80.078367 138.248145,75.8175726 C138.248145,63.4622536 133.480447,52.1059297 124.825587,43.8491555 C116.316617,35.7302936 104.812556,31.2597333 92.4244974,31.2597333 C66.3936023,31.2597333 46.7651933,50.4138965 46.7651933,75.8175726 C46.7651933,86.2311096 50.0145862,95.6021919 55.6253391,103.05525 L68.9723574,91.7024031 C66.3151786,87.1837474 64.7980264,81.7628672 64.7980264,75.8175726 C64.7980264,59.3306795 76.6769072,46.8965536 92.4244974,46.8965536 C108.267234,46.8965536 120.217619,59.3306795 120.217619,75.8175726 C120.217619,80.5558449 119.238476,84.949916 117.494126,88.830003 C110.347768,102.238207 94.4387173,103.4771 94.3072423,103.485792 L79.6754597,103.430163 L55.7320184,103.189686 C55.7723835,103.241838 55.8162085,103.291092 55.8554204,103.340926 L30.8359601,103.248212 C28.9272661,103.248212 28.0755619,102.393503 28.0755619,100.475479 L28.0755619,11.6054933 C28.0755619,3.68422839 24.5614891,0.147183707 16.6729896,0.147183707 L-0.00011532894,0.147183707 L-0.00011532894,15.6229131 L7.61620788,15.6229131 C9.52374856,15.6229131 10.3725696,16.4764627 10.3725696,18.3927482 L10.3725696,107.262155 C10.3725696,115.187476 13.8918322,118.722203 21.7786017,118.722203 L79.1178443,118.913426 C79.8582561,119.115079 93.3286763,118.324111 94.0846575,118.49795 L79.1178443,118.043651 Z" id="Fill-1" fill="#1B75BC" mask="url(#mask-2)"></path>
                </g>
                <path d="M204.097453,49.437066 L230.813978,49.437066 C230.775343,49.3693412 230.733248,49.3008197 230.694613,49.2322981 L203.203653,49.0020339 C203.500625,49.1382802 203.801057,49.2856812 204.097453,49.437066" id="Fill-4" fill="#A7A9AC"></path>
                <g id="Group-8" transform="translate(122.825321, 31.311885)">
                    <mask id="mask-4" fill="white">
                        <use xlink:href="#path-3"></use>
                    </mask>
                    <g id="Clip-7"></g>
                    <path d="M153.670565,0.548346229 C137.783427,0.548346229 129.713861,9.22581085 126.678404,13.5520847 C126.695703,13.0276703 126.704353,12.4505248 126.704353,11.8438266 C126.704353,5.66732603 122.975768,2.53532628 115.628738,2.53532628 L43.3428647,2.53532628 C43.0037976,2.61587169 42.3833279,2.62282525 41.427251,2.53532628 L35.7513372,2.53532628 C30.2218911,3.02497286 26.0366039,4.80044876 24.5759629,5.49638432 C24.4733201,5.54853603 24.3660642,5.59663149 24.2651514,5.64820374 C24.2340125,5.66326978 24.2080635,5.67601798 24.1849978,5.68934564 C9.83404107,13.0224551 0.477980793,27.5739404 0.477980793,45.1061854 C0.477980793,70.6952898 20.1069664,89.9948983 46.1378615,89.9948983 C58.5201532,89.9948983 70.0247916,85.4889908 78.538374,77.3023317 C87.1949643,68.9771808 91.9615094,57.5443676 91.9615094,45.1061854 C91.9615094,35.0264194 88.7870803,25.6188308 82.9191438,18.0081584 L71.126183,32.0398649 C72.9264678,35.9240082 73.9280996,40.3424167 73.9280996,45.1061854 C73.9280996,61.7819836 61.980598,74.3574986 46.1378615,74.3574986 C30.3891181,74.3574986 18.5125438,61.7819836 18.5125438,45.1061854 C18.5125438,34.8780767 23.0974458,26.2353799 30.3377967,21.1320456 C30.9957483,20.7600301 35.2358168,18.5215629 43.429938,18.0069994 L107.394251,18.0069994 C109.304675,18.0069994 110.154073,18.8634464 110.154073,20.7808908 L110.154073,121.108027 L127.856489,121.108027 L127.856489,83.0025133 C127.856489,81.1702499 127.798824,79.5825202 127.730204,78.3534783 C130.740866,82.2723894 138.459255,89.9948983 152.517276,89.9948983 C175.328764,89.9948983 191.259727,71.6062063 191.259727,45.2695941 C191.259727,18.5215629 176.153942,0.548346229 153.670565,0.548346229 M150.04693,74.5220662 C135.152197,74.5220662 127.361728,59.9734783 127.361728,45.6022061 C127.361728,24.0357368 139.336908,16.3520519 150.541691,16.3520519 C164.113601,16.3520519 173.2292,28.0409879 173.2292,45.4364796 C173.2292,62.5613619 163.697263,74.5220662 150.04693,74.5220662" id="Fill-6" fill="#28AAE2" mask="url(#mask-4)"></path>
                </g>
                <g id="Group-11" transform="translate(422.680566, 0.020861)">
                    <mask id="mask-6" fill="white">
                        <use xlink:href="#path-5"></use>
                    </mask>
                    <g id="Clip-10"></g>
                    <polygon id="Fill-9" fill="#A7A9AC" mask="url(#mask-6)" points="4.11061175 13.4797677 4.11061175 2.74462846 0.294953765 2.74462846 0.294953765 0.558312999 10.5136745 0.558312999 10.5136745 2.74462846 6.7066662 2.74462846 6.7066662 13.4797677"></polygon>
                </g>
                <g id="Group-14" transform="translate(438.249973, 0.020861)">
                    <mask id="mask-8" fill="white">
                        <use xlink:href="#path-7"></use>
                    </mask>
                    <g id="Clip-13"></g>
                    <polygon id="Fill-12" fill="#A7A9AC" mask="url(#mask-8)" points="0.197385481 13.4797677 0.197385481 0.558312999 4.08281748 0.558312999 6.41649858 9.37253099 8.72307739 0.558312999 12.6171591 0.558312999 12.6171591 13.4797677 10.2050543 13.4797677 10.2050543 3.30844636 7.65340147 13.4797677 5.15364669 13.4797677 2.61006691 3.30844636 2.61006691 13.4797677"></polygon>
                </g>
                <path d="M379.533126,95.8814933 C379.486995,95.7800872 379.435673,95.3454896 379.425294,95.4561671 C379.190599,97.913092 377.840097,105.028323 371.112384,105.028323 C362.46329,105.028323 350.873885,105.008042 350.873885,105.008042 C348.965191,105.008042 348.113486,104.152754 348.113486,102.23473 L348.113486,45.235232 C348.113486,37.3139671 344.599414,33.7769224 336.710914,33.7769224 L320.037809,33.7769224 L320.037809,49.2526518 L327.654132,49.2526518 C329.175898,49.2526518 330.409917,53.3900206 330.409917,54.919804 L330.409917,109.021406 C330.409917,116.946727 333.929757,120.481454 341.81595,120.481454 L350.570569,120.511006 C350.570569,120.511006 362.62821,120.535923 372.698733,120.535923 C386.682367,120.535923 382.76868,103.013529 379.533126,95.8814933" id="Fill-15" fill="#A7A9AC"></path>
                <path d="M326.393068,13.5003966 C326.393068,19.0632453 330.880517,23.5726296 336.416306,23.5726296 C341.952095,23.5726296 346.440121,19.0632453 346.440121,13.5003966 C346.440121,7.93754779 341.952095,3.4281635 336.416306,3.4281635 C330.880517,3.4281635 326.393068,7.93754779 326.393068,13.5003966" id="Fill-17" fill="#A7A9AC"></path>
                <path d="M425.440388,54.464056 L425.440388,36.6745292 L400.113576,36.6745292 C398.143181,36.6745292 397.127709,35.5544264 397.127709,33.5263045 L397.127709,12.2061071 C397.127709,4.28484221 393.614213,0.747797536 385.725714,0.747797536 L369.052609,0.747797536 L369.052609,16.2229475 L376.668355,16.2229475 C378.576473,16.2229475 379.424717,17.0770765 379.424717,18.9927826 L379.424717,109.021116 C379.424717,116.947016 382.944556,120.481743 390.830749,120.481743 L399.585369,120.510716 L424.957736,120.535633 L424.953123,105.036725 L399.888684,105.007752 C397.97999,105.007752 397.127709,104.153044 397.127709,102.23502 L397.127709,57.4285908 C397.127709,55.7388755 398.479365,54.464056 400.112999,54.464056 L425.440388,54.464056 Z" id="Fill-19" fill="#A7A9AC"></path>
                <polygon id="Fill-21" fill="#28AAE2" points="94.6521335 125.855861 94.6608973 125.855861 94.6696611 125.855861"></polygon>
                <path d="M205.691356,49.7732417 L193.953177,63.7412073 C195.745388,67.6085462 196.741254,72.006094 196.741254,76.7478431 C196.741254,93.3477315 184.849687,105.86588 169.079607,105.86588 C156.59525,105.86588 146.560479,97.9185389 142.988741,86.300877 C140.05708,79.1184279 138.387117,71.6363963 137.778756,68.6017464 C137.698603,68.1601953 137.617873,67.7192237 137.525609,67.2811493 C137.51696,67.2284182 137.510617,67.1953887 137.510617,67.1953887 L137.505427,67.1930709 C135.698799,58.6604721 131.469687,50.9588239 125.144471,44.9266097 C116.67529,36.8459924 105.223127,32.3945545 92.8921562,32.3945545 C66.9806266,32.3945545 47.4439041,51.4612187 47.4439041,76.7478431 C47.4439041,87.1144436 50.6783042,96.4438046 56.2636848,103.861516 L69.5484254,92.5602408 C66.9022029,88.0612868 65.3925471,82.664744 65.3925471,76.7478431 C65.3925471,60.3368598 77.2178,47.9606802 92.8921562,47.9606802 C108.663965,47.9606802 120.557839,60.3368598 120.557839,76.7478431 C120.557839,81.4646753 119.58331,85.8367268 117.847609,89.7017477 C110.732967,103.045052 94.8959966,104.281627 94.7691347,104.289739 L80.2036662,104.232952 L56.3697874,103.994213 C56.4101526,104.046365 56.4528243,104.092722 56.4926128,104.144294 L31.589058,104.052159 C31.1819469,104.052159 30.8353834,104.005223 30.5234186,103.924677 L30.5234186,119.480373 L79.6483574,119.648417 C80.0566218,119.756777 84.3681943,119.564395 88.2536263,119.400986 C90.1381011,119.426482 92.2566938,119.383023 94.5309805,119.231203 L93.7611598,119.208025 C94.1688476,119.205127 94.4427538,119.210343 94.5373236,119.231203 C106.10597,118.451246 121.667303,114.721819 130.808275,101.500202 C138.751556,113.678205 152.625628,121.431426 169.079607,121.431426 C181.405965,121.431426 192.856398,116.9458 201.331346,108.796806 C209.948724,100.50932 214.69278,89.1298173 214.69278,76.7478431 C214.69278,66.7150136 211.53392,57.3497259 205.691356,49.7732417" id="Fill-23" fill="#1B75BC"></path>
            </g>
        </g>
    </g>
</svg>